<svg width="40" height="41" viewBox="0 0 40 41" fill="none" xmlns="http://www.w3.org/2000/svg">
<path fill-rule="evenodd" clip-rule="evenodd" d="M30.2536 15.7975C30.2536 8.53856 24.0847 2.63292 16.502 2.63292C8.91933 2.63292 2.75033 8.53856 2.75033 15.7975C2.75033 23.0565 8.91933 28.9621 16.502 28.9621C24.0847 28.9621 30.2536 23.0565 30.2536 15.7975ZM0 15.7975C0 7.07334 7.38877 0 16.502 0C25.6152 0 33.004 7.07334 33.004 15.7975C33.004 24.5217 25.6152 31.595 16.502 31.595C7.38877 31.595 0 24.5217 0 15.7975ZM16.502 24.0254C17.4522 24.0254 18.2209 23.2882 18.2209 22.3798C18.2209 21.4715 17.4522 20.7342 16.502 20.7342C15.5545 20.7342 14.783 21.4715 14.783 22.3798C14.783 23.2882 15.5545 24.0254 16.502 24.0254ZM16.6285 7.96063C18.0532 7.96063 19.3005 8.40691 20.1366 9.21785C20.9204 9.97876 21.3261 11.0254 21.3109 12.2418C21.2876 14.0637 20.1297 15.2591 19.1987 16.2201C17.9542 17.5036 17.895 18.2132 17.9129 19.0873H15.1557C15.1475 17.1456 15.1832 16.2899 17.1249 14.5219C17.9115 13.8057 18.5331 13.2396 18.4478 12.1246C18.3695 11.0648 17.444 10.5106 16.5721 10.5106C15.5971 10.5106 14.4571 11.2044 14.4571 13.1606H11.6917C11.6917 10.0011 13.6306 7.96063 16.6285 7.96063ZM32.9894 39.6836H35.238V29.1807H33.1359V36.1021L29.0856 29.1807H26.8371V39.6836H28.9391V32.7696L32.9894 39.6836ZM39.3468 39.4346C39.4103 39.2783 39.4421 39.1123 39.4421 38.9366C39.4421 38.7657 39.4103 38.6045 39.3468 38.4532C39.2834 38.3018 39.1955 38.1699 39.0832 38.0576C38.9709 37.9453 38.839 37.8574 38.6877 37.794C38.5363 37.7256 38.3727 37.6914 38.1969 37.6914C38.026 37.6914 37.8625 37.7256 37.7062 37.794C37.5549 37.8574 37.4206 37.9453 37.3034 38.0576C37.1911 38.1699 37.1008 38.3018 37.0324 38.4532C36.9689 38.6045 36.9372 38.7657 36.9372 38.9366C36.9372 39.1123 36.9689 39.2783 37.0324 39.4346C37.1008 39.586 37.1911 39.7178 37.3034 39.8301C37.4206 39.9424 37.5549 40.0303 37.7062 40.0938C37.8625 40.1621 38.026 40.1963 38.1969 40.1963C38.3727 40.1963 38.5363 40.1621 38.6877 40.0938C38.839 40.0303 38.9709 39.9424 39.0832 39.8301C39.1955 39.7178 39.2834 39.586 39.3468 39.4346Z" fill="black"/>
</svg>
